<svg version="1.2" baseProfile="tiny-ps" xmlns="http://www.w3.org/2000/svg" viewBox="0 0 245 52" width="245" height="52">
	<title>logo-svg</title>
	<style>
		tspan { white-space:pre }
		.shp0 { fill: #0167f3 } 
		.shp1 { fill: #ffffff } 
	</style>
	<g id="Layer">
		<g id="Layer">
			<path id="Layer" fill-rule="evenodd" class="shp0" d="M37.4 37.9C40.2 37.9 42.6 40.2 42.6 43.1C42.6 46 40.3 48.3 37.4 48.3C34.5 48.3 32.2 46 32.2 43.1C32.2 40.3 34.6 37.9 37.4 37.9ZM37.4 45C38.4 45 39.2 44.1 39.2 43.1C39.2 42.1 38.4 41.3 37.4 41.3C36.4 41.3 35.6 42.1 35.6 43.1C35.6 44.1 36.4 45 37.4 45Z" />
			<path id="Layer" fill-rule="evenodd" class="shp0" d="M49.4 37.9C52.2 37.9 54.6 40.2 54.6 43.1C54.6 46 52.3 48.3 49.4 48.3C46.5 48.3 44.2 46 44.2 43.1C44.2 40.3 46.6 37.9 49.4 37.9ZM49.4 45C50.4 45 51.2 44.1 51.2 43.1C51.2 42.1 50.4 41.3 49.4 41.3C48.4 41.3 47.6 42.1 47.6 43.1C47.6 44.1 48.4 45 49.4 45Z" />
			<path id="Layer" fill-rule="evenodd" class="shp0" d="M62.2 18.9L57.5 33.4C57.3 34.8 56.1 35.6 54.7 35.6L29.5 35.6C28.5 35.6 27.6 34.8 27.4 33.8L21.5 7L17.2 7C15.9 7 15.1 6.1 15.1 4.9C15.1 3.7 16 2.9 17.2 2.9L23.1 2.9C24.1 2.9 25 3.7 25.2 4.7L27.6 15.1L59.6 15.1C60.4 15.1 61.4 15.5 61.8 16.1C62.5 16.7 62.7 17.7 62.2 18.9ZM37.8 31.5L37.8 25.7L30.2 25.7L31.4 31.5L37.8 31.5ZM37.9 19.2L29 19.2L29.9 23.7L37.9 23.7L37.9 19.2ZM46.6 25.7L39.7 25.7L39.7 31.5L46.6 31.5L46.6 25.7ZM46.6 19.2L39.7 19.2L39.7 23.7L46.6 23.7L46.6 19.2ZM55.8 25.7L48.6 25.7L48.6 31.5L53.9 31.5L55.8 25.7ZM57.9 19.2L48.5 19.2L48.5 23.7L56.4 23.7L57.9 19.2Z" />
		</g>
		<g id="Layer">
			<path id="Layer" class="shp0" d="M24.9 35.4C24.9 35.5 24.9 35.6 24.8 35.6L19.8 35.6C19 35.6 18.3 34.9 18.3 34.1C18.3 33.7 18.5 33.3 18.7 33.1C19 32.8 19.3 32.7 19.7 32.7L21.5 32.7C21.9 32.7 22.3 32.5 22.5 32.3C22.7 32.1 22.8 31.9 22.9 31.7C23.1 30.7 22.3 29.8 21.3 29.8L10.5 29.8C9.7 29.8 9 29.1 9 28.3C9 27.9 9.2 27.5 9.4 27.3C9.7 27 10 26.9 10.4 26.9L15.4 26.9C15.8 26.9 16.2 26.7 16.4 26.5C16.6 26.3 16.7 26.1 16.8 25.9C17 24.9 16.2 24 15.2 24L13.7 24C12.9 24 12.2 23.3 12.2 22.5C12.2 22.1 12.4 21.7 12.6 21.5C12.9 21.2 13.2 21.1 13.6 21.1L18.5 21.1C18.9 21.1 19.3 20.9 19.5 20.7C19.8 20.4 19.9 20.1 19.9 19.7C19.9 18.9 19.3 18.3 18.6 18.2L18.5 18.2L18.3 18.2L4 18.2C3.2 18.2 2.5 17.5 2.5 16.7C2.5 16.3 2.7 15.9 2.9 15.7C3.2 15.4 3.5 15.3 3.9 15.3L13.7 15.3C14.1 15.3 14.4 15.1 14.6 14.9C14.8 14.7 14.9 14.5 15 14.3C15.2 13.3 14.4 12.4 13.4 12.4L10.8 12.4C10 12.4 9.3 11.7 9.3 10.9C9.3 10.5 9.5 10.1 9.7 9.9C10 9.6 10.3 9.5 10.7 9.5L18.9 9.5C19 9.5 19 9.5 19 9.6L24.9 35.4Z" />
			<path id="Layer" class="shp0" d="M17.3 34.1C17.3 34.5 17.1 34.9 16.9 35.1C16.6 35.4 16.3 35.5 15.9 35.5L12.8 35.5C12 35.5 11.3 34.9 11.3 34C11.3 33.6 11.5 33.2 11.7 33C12 32.7 12.3 32.6 12.7 32.6L15.8 32.6C16.7 32.7 17.3 33.4 17.3 34.1Z" />
			<path id="Layer" class="shp0" d="M10.8 22.5C10.8 22.9 10.6 23.3 10.4 23.5C10.2 23.8 9.8 23.9 9.4 23.9L6.4 23.9C5.7 24 5 23.3 5 22.5C5 22.1 5.2 21.7 5.4 21.5C5.7 21.2 6 21.1 6.4 21.1L9.4 21.1C10.2 21.1 10.8 21.8 10.8 22.5Z" />
		</g>
		<g id="Layer">
			<path id="Layer" class="shp1" d="M82.1 37.6C80.3 37.6 78.6 37.3 77.2 36.6C75.7 36 74.5 35 73.6 33.8C72.7 32.6 72.1 31.2 71.8 29.5L76.6 28.8C76.9 30.2 77.6 31.3 78.7 32.1C79.8 32.9 81 33.2 82.3 33.2C83.1 33.2 83.8 33.1 84.5 32.8C85.2 32.6 85.8 32.2 86.3 31.7C86.8 31.2 87 30.7 87 30C87 29.8 87 29.5 86.9 29.3C86.8 29.1 86.7 28.8 86.5 28.6C86.3 28.4 86.1 28.2 85.8 28C85.5 27.8 85.1 27.7 84.6 27.5L78.2 25.6C77.7 25.5 77.2 25.3 76.5 25C75.9 24.7 75.3 24.4 74.7 23.9C74.1 23.4 73.6 22.8 73.2 22.1C72.8 21.4 72.6 20.4 72.6 19.2C72.6 17.6 73 16.2 73.8 15.1C74.6 14 75.7 13.2 77.1 12.7C78.5 12.2 80 11.9 81.7 11.9C83.4 11.9 84.9 12.2 86.2 12.8C87.5 13.4 88.6 14.2 89.5 15.2C90.4 16.2 91 17.6 91.4 19.1L86.4 20C86.2 19.2 85.9 18.5 85.4 18C84.9 17.5 84.3 17 83.7 16.8C83 16.5 82.3 16.4 81.6 16.3C80.9 16.3 80.2 16.4 79.5 16.6C78.9 16.8 78.3 17.1 77.9 17.6C77.5 18 77.3 18.5 77.3 19.1C77.3 19.6 77.5 20.1 77.8 20.4C78.1 20.7 78.5 21 79 21.2C79.5 21.4 80 21.6 80.5 21.7L84.8 22.9C85.4 23.1 86.1 23.3 86.9 23.6C87.7 23.9 88.4 24.3 89.1 24.8C89.8 25.3 90.4 25.9 90.9 26.8C91.4 27.6 91.6 28.6 91.6 29.9C91.6 31.2 91.3 32.4 90.8 33.4C90.2 34.4 89.5 35.2 88.6 35.8C87.7 36.4 86.6 36.9 85.4 37.2C84.2 37.5 83.3 37.6 82.1 37.6Z" />
			<path id="Layer" class="shp1" d="M112.3 26.8L112.3 37.1L107.6 37.1L107.6 28.4C107.6 28 107.6 27.4 107.5 26.8C107.5 26.2 107.3 25.5 107.1 24.8C106.9 24.1 106.5 23.6 105.9 23.1C105.4 22.7 104.6 22.4 103.6 22.4C103.2 22.4 102.8 22.5 102.3 22.6C101.8 22.7 101.4 23 101 23.3C100.6 23.7 100.3 24.2 100 24.9C99.7 25.6 99.6 26.5 99.6 27.7L99.6 37L95 37L95 12.6L99.1 12.6L99.1 20.6C99.5 20.1 100 19.7 100.6 19.3C101.8 18.5 103.3 18.1 105.1 18.1C106.5 18.1 107.7 18.4 108.6 18.8C109.5 19.3 110.2 19.9 110.7 20.6C111.2 21.4 111.6 22.1 111.8 23C112 23.8 112.2 24.5 112.2 25.2C112.2 26 112.3 26.5 112.3 26.8Z" />
			<path id="Layer" fill-rule="evenodd" class="shp1" d="M124.3 37.6C122.4 37.6 120.8 37.2 119.4 36.4C118 35.6 116.9 34.4 116.1 33C115.3 31.5 114.9 29.9 114.9 28C114.9 26.1 115.3 24.4 116.1 22.9C116.9 21.4 118 20.3 119.4 19.5C120.8 18.7 122.4 18.3 124.2 18.3C126.1 18.3 127.7 18.7 129.1 19.5C130.5 20.3 131.6 21.5 132.4 22.9C133.2 24.4 133.6 26 133.6 27.9C133.6 29.8 133.2 31.5 132.4 33C131.6 34.5 130.5 35.6 129.1 36.4C127.8 37.2 126.1 37.6 124.3 37.6ZM124.3 33.3C125.8 33.3 126.9 32.8 127.6 31.8C128.3 30.8 128.7 29.5 128.7 27.9C128.7 26.3 128.3 25 127.6 24C126.9 23 125.8 22.5 124.3 22.5C123.3 22.5 122.5 22.7 121.8 23.2C121.2 23.7 120.7 24.3 120.4 25.1C120.1 25.9 119.9 26.8 119.9 27.9C119.9 29.5 120.3 30.9 121 31.8C121.8 32.8 122.8 33.3 124.3 33.3Z" />
			<path id="Layer" fill-rule="evenodd" class="shp1" d="M154.4 27.9C154.4 29.8 154 31.4 153.3 32.9C152.6 34.4 151.6 35.5 150.3 36.4C149 37.3 147.5 37.7 145.8 37.7C144.1 37.7 142.6 37.3 141.4 36.5L141.4 45.3L136.7 45.3L136.7 18.7L140.8 18.7L140.8 19.7C140.9 19.6 141 19.5 141.1 19.4C142.3 18.5 143.7 18.1 145.5 18.1C147.3 18.1 148.8 18.6 150.1 19.4C151.4 20.3 152.4 21.4 153.1 22.9C153.9 24.4 154.2 26 154.4 27.9ZM149.4 27.9C149.4 26.9 149.2 26 148.9 25.1C148.6 24.3 148.1 23.6 147.4 23.1C146.8 22.6 145.9 22.3 144.9 22.3C143.9 22.3 143.1 22.5 142.5 23C141.9 23.5 141.5 24.2 141.2 25C140.9 25.8 140.8 26.8 140.8 27.9C140.8 29 140.9 30 141.2 30.8C141.4 31.7 141.9 32.3 142.5 32.8C143.1 33.3 144 33.5 145 33.5C146 33.5 146.9 33.2 147.5 32.7C148.1 32.2 148.6 31.5 148.9 30.7C149.2 29.9 149.3 29 149.4 27.9Z" />
		</g>
	</g>
</svg>